<svg width="717" height="353.99999999999994" xmlns="http://www.w3.org/2000/svg">

 <title/>
 <g label="Layer 1" id="imagebot_2">
  <rect label="Layer 1" stroke-linejoin="round" stroke="#000000" stroke-linecap="round" stroke-width="5.9163" fill="#ffffff" x="521.31" y="124.01" width="379.45" height="308.42" transform="translate(-1.25 7.5) matrix(0.88699 0.46178 -0.95064 0.3103 -44.3063 -222.391)" id="imagebot_23"/>
  <path transform="translate(-1.25 7.5) matrix(1 0 0 1 -44.3063 -222.391)" label="Layer 1" stroke-linejoin="round" stroke="#000000" stroke-linecap="round" stroke-width="1px" fill="#ffffff" d="M 683.84 377.78 L 683.84 378.53 L 389 469.62 S 413.66 502.532 389 545.245 L 683.84 452.12 L 683.84 453.401 C 708.693 410.354 683.84 377.776 683.84 377.776 L 683.84 377.78 Z" id="imagebot_22"/>
  <rect label="Layer 1" stroke-linejoin="round" stroke="#000000" stroke-linecap="round" stroke-width="6.0986" fill="#ffffff" x="469.26" y="66.716" width="360.01" height="310.79" transform="translate(-1.25 7.5) matrix(0.90119 0.43342 -0.95857 0.28485 -44.3063 -222.391)" id="imagebot_21"/>
  <path transform="translate(-1.25 7.5) matrix(1 0 0 1 -44.3063 -222.391)" label="Layer 1" stroke="#000000" stroke-width="1px" fill="#cabdbd" d="M 60.219 312.16 C 85.072 355.207 58.6565 374.691 58.6565 374.691 L 388.996 544.501 L 405.996 508.361 L 388.996 470.411 L 60.2165 312.161 L 60.219 312.16 Z M 388.999 544.5 C 411.698 525.049 388.78 543.625 388.78 543.625 L 389 544.505 Z" id="imagebot_20"/>
  <path transform="translate(-1.25 7.5) matrix(1 0 0 1 -44.3063 -222.391)" label="Layer 1" stroke="#000000" stroke-width="0.97806px" fill="#ffffff" d="M 676.14 380.77 L 676.14 381.507 L 388.99 470.981 S 413.007 503.308 388.99 545.261 L 676.14 453.792 L 676.14 455.05 C 700.345 412.769 676.14 380.77 676.14 380.77 L 676.14 380.77 Z" id="imagebot_19"/>
  <path transform="translate(-1.25 7.5) matrix(1 0 0 1 -44.3063 -222.391)" label="Layer 1" opacity="0.28571" fill-rule="evenodd" fill="#cabdbd" d="M 98.447 352.69 C 102.804 356.453 107.78 359.435 112.708 362.375 C 125.416 369.626 138.609 375.978 151.813 382.262 C 159.483 386.105 167.353 389.52 175.208 392.96 C 175.208 392.96 171.879 393.347 171.879 393.347 C 164.026 389.899 156.161 386.471 148.485 382.639 C 135.195 376.335 121.921 369.958 109.091 362.751 C 104.063 359.785 98.977 356.788 94.512 353 L 98.4482 352.69 L 98.447 352.69 Z" id="imagebot_18"/>
  <path transform="translate(-1.25 7.5) matrix(1 0 0 1 -44.3063 -222.391)" label="Layer 1" opacity="0.28571" fill-rule="evenodd" fill="#cabdbd" d="M 176.67 402.21 C 181.137 403.259 185.492 404.727 189.93 405.891 C 194.882 407.14 199.637 409.016 204.431 410.749 C 209.868 413.182 215.32 415.563 220.823 417.849 C 229.228 421.142 237.641 424.422 246.014 427.796 C 252.031 430.541 258.099 433.177 263.966 436.235 C 266.798 437.665 269.707 438.912 272.673 440.033 C 274.432 440.938 276.28 441.688 277.998 442.671 C 278.241 442.798 278.485 442.925 278.728 443.052 C 278.728 443.052 274.814 443.478 274.814 443.478 L 274.086 443.089 C 272.353 442.166 270.57 441.338 268.794 440.503 C 265.856 439.357 262.968 438.104 260.165 436.651 C 254.357 433.596 248.355 430.941 242.382 428.23 C 233.996 424.849 225.573 421.557 217.145 418.285 C 211.605 416.006 206.12 413.616 200.634 411.217 C 195.862 409.487 191.129 407.618 186.194 406.384 C 181.713 405.198 177.306 403.712 172.765 402.763 C 172.765 402.763 176.671 402.21 176.671 402.21 L 176.67 402.21 Z" id="imagebot_17"/>
  <path transform="translate(-1.25 7.5) matrix(1 0 0 1 -44.3063 -222.391)" label="Layer 1" fill-opacity="0" d="M 85.282 374.05 C 89.4304 374.968 93.2754 376.859 97.139 378.56 C 101.2 380.347 102.56 380.868 106.765 382.586 C 117.126 387.935 128.437 391.012 139.186 395.439 C 141.726 396.485 144.216 397.649 146.73 398.755 C 160.921 404.95 175.111 411.148 189.171 417.639 C 199.751 422.395 210.13 427.612 220.883 431.972 C 227.302 434.527 233.633 437.307 239.906 440.201 C 241.249 440.82 242.622 441.378 243.928 442.069 C 245.051 442.664 246.098 443.393 247.184 444.055 C 248.773 443.899 251.046 448.296 252.244 448.987 C 254.516 449.129 256.619 450.253 258.648 451.199 C 259.813 451.509 260.734 452.28 261.77 452.843 C 262.297 453.13 262.874 453.297 263.368 453.644 C 264.329 454.709 262.419 455.667 262.038 454.104 C 262.025 453.952 262.012 453.8 261.998 453.648 C 261.999 453.571 263.099 453.581 263.098 453.659 C 263.083 453.671 263.068 453.682 263.052 453.693 C 263.366 453.999 262.053 453.833 262.823 454.71 C 260.969 454.574 259.306 453.207 257.507 452.797 C 255.499 451.849 253.547 450.781 251.516 449.888 C 249.43 448.748 247.259 447.735 245.072 446.805 C 236.251 442.969 227.213 439.645 218.381 435.829 C 207.543 431.422 196.856 426.649 185.992 422.303 C 171.632 416.341 157.144 410.655 143.062 404.049 C 140.649 402.941 138.259 401.777 135.822 400.723 C 125.179 396.119 114.194 392.217 104.098 386.424 C 97.3502 383.087 90.7708 379.439 84.4378 375.364 C 84.3448 375.304 85.1894 373.989 85.2824 374.049 L 85.282 374.05 Z" id="imagebot_16"/>
  <path transform="translate(-1.25 7.5) matrix(1 0 0 1 -44.3063 -222.391)" label="Layer 1" fill-opacity="0" d="M 80.473 355.48 C 84.778 356.968 88.8756 358.987 93.111 360.651 C 96.4266 361.954 99.5483 362.977 102.925 364.133 C 113.01 367.874 123.141 371.566 132.868 376.174 C 136.228 377.472 139.394 379.239 142.717 380.616 C 144.659 381.421 146.662 382.04 148.595 382.88 C 151.846 384.358 155.065 385.858 158.229 387.521 C 161.518 389.624 164.76 391.757 168.447 393.084 C 173.053 395.121 177.7 397.073 182.226 399.296 C 188.577 401.884 194.701 404.943 200.922 407.82 C 208.177 411.385 215.704 414.343 223.023 417.77 C 228.851 420.42 234.826 422.915 239.667 427.212 C 240.203 427.45 240.338 428.075 240.754 428.424 C 240.977 428.612 241.322 428.562 241.599 428.656 C 242.437 428.938 242.515 429.036 243.349 429.496 C 247.367 431.37 251.423 433.131 255.344 435.211 C 259.663 437.331 264.308 438.62 268.799 440.299 C 269.889 440.707 276.401 443.36 277.366 443.752 C 286.331 447.559 294.906 452.196 303.624 456.524 C 309.548 459.073 314.846 462.726 320.338 466.047 C 333.794 474.184 315.518 462.991 329.257 471.43 C 337.045 476.571 345.584 480.4 353.639 485.07 C 356.764 486.779 359.69 488.808 362.756 490.605 C 365.499 491.816 368.314 492.885 371.131 493.928 C 377.691 496.373 383.84 499.74 390.063 502.918 C 392.652 504.763 396.315 505.813 398.133 508.56 C 398.202 508.643 397.031 509.626 396.961 509.543 C 394.024 508.237 391.233 506.614 388.216 505.488 C 381.853 502.69 375.722 499.408 369.585 496.151 C 366.985 494.751 364.541 493.08 361.909 491.771 C 360.95 491.412 359.97 491.241 358.993 490.942 C 356.386 490.145 353.876 489.042 351.374 487.975 C 342.883 483.845 334.276 479.863 326.277 474.821 C 321.979 472.081 317.668 469.362 313.379 466.608 C 312.073 465.769 310.809 464.861 309.469 464.077 C 307.174 462.734 303.524 461.035 301.141 459.885 C 292.457 455.63 283.876 451.159 275.055 447.188 C 267.904 443.947 260.548 441.146 253.632 437.406 C 249.742 435.327 245.806 433.361 242.27 430.7 C 241.07 429.785 239.706 429.252 238.289 428.743 C 232.46 426.159 226.664 423.497 220.884 420.805 C 213.517 417.464 206.052 414.33 198.83 410.681 C 192.762 407.581 186.701 404.486 180.521 401.61 C 176.076 399.418 171.723 397.015 167.179 395.043 C 163.55 393.414 160.113 391.524 156.835 389.261 C 153.819 387.507 150.687 386.029 147.444 384.737 C 145.366 384.068 143.28 383.678 141.168 383.139 C 137.542 382.212 134 380.949 130.521 379.579 C 120.625 375.438 110.328 372.362 100.48 368.09 C 93.0515 365.037 85.4495 361.857 79.2475 356.629 C 79.1662 356.542 80.3936 355.392 80.4749 355.479 L 80.473 355.48 Z" id="imagebot_15"/>
  <path transform="translate(-1.25 7.5) matrix(1 0 0 1 -44.3063 -222.391)" label="Layer 1" fill-opacity="0" d="M 132.63 392.4 C 149.58 397.81 165.591 405.616 181.481 413.522 C 190.479 417.99 199.102 423.182 208.144 427.565 C 213.918 430.363 219.892 432.786 225.829 435.214 C 230.647 436.77 235.08 439.223 239.687 441.27 C 244.775 443.531 239.741 441.133 244.206 443.3 C 246.28 444.168 248.34 445.089 250.258 446.267 L 250.892 446.604 C 250.971 446.668 250.074 447.784 249.995 447.721 L 249.344 447.346 C 247.375 446.213 244.962 446.197 242.865 445.384 C 236.415 443.302 230.14 440.701 223.498 439.247 C 216.971 437.482 210.466 435.672 204.126 433.301 C 194.525 429.711 185.308 425.201 176.097 420.733 C 165.907 415.592 155.861 410.32 146.116 404.364 C 141.533 401.563 138.018 399.364 133.947 396.058 C 133.054 395.334 132.267 394.489 131.427 393.704 C 131.335 393.619 132.539 392.314 132.632 392.399 L 132.63 392.4 Z" id="imagebot_14"/>
  <path transform="translate(-1.25 7.5) matrix(1 0 0 1 -44.3063 -222.391)" label="Layer 1" fill-rule="evenodd" fill="#000000" d="M 77.17 342.84 C 82.0466 343.308 86.7421 344.855 91.444 346.154 C 95.3305 347.095 99.0391 348.459 102.742 349.94 C 106.107 351.64 109.295 353.647 112.472 355.666 C 115.932 358.065 119.945 359.315 123.797 360.905 C 127.563 362.337 130.873 364.644 134.313 366.693 C 136.759 368.158 139.386 369.335 141.772 370.902 C 142.701 371.513 144.22 372.759 145.092 373.456 C 148.166 376.09 151.727 378.024 155.04 380.31 C 158.743 383.053 162.684 385.428 166.737 387.611 C 171.678 390.289 176.724 392.725 181.846 395.034 C 188.952 397.37 195.77 400.476 202.529 403.658 C 210.299 407.304 218.188 410.665 226.147 413.872 C 229.981 415.21 233.297 417.659 236.474 420.136 C 240.197 422.236 244.192 423.81 248.087 425.56 C 252.668 427.517 257.178 429.663 261.788 431.552 C 265.345 432.9 268.759 434.608 272.188 436.252 C 276.025 438.252 280.075 439.75 283.924 441.73 C 285.423 442.388 286.9 443.133 288.332 443.926 C 289.088 444.345 289.717 444.898 290.5 445.268 C 291.226 445.922 292.275 445.988 293.146 446.381 C 293.473 446.529 293.771 446.735 294.084 446.912 C 294.427 447.053 294.771 447.193 295.114 447.334 C 298.131 448.726 301.356 449.612 304.595 450.324 C 308.719 451.143 312.516 453.065 316.214 455 C 318.724 456.336 321.297 457.551 323.804 458.891 C 326.844 460.748 330.103 462.166 333.309 463.712 C 336.682 465.826 340.472 467.092 344.037 468.812 C 347.093 470.262 350.336 471.173 353.43 472.532 C 356.215 473.714 358.661 475.567 361.441 476.746 C 364.626 478.181 367.657 479.916 370.862 481.314 C 371.005 481.422 369.483 483.447 369.34 483.339 C 366.373 481.626 363.562 479.597 360.373 478.308 C 357.607 477.049 355.043 475.408 352.228 474.255 C 349.158 472.816 345.87 471.972 342.752 470.642 C 339.093 469.058 335.363 467.633 331.952 465.54 C 328.786 463.922 325.559 462.42 322.655 460.346 C 320.159 458.977 317.54 457.843 314.893 456.799 C 311.198 455.122 307.585 453.224 303.571 452.406 C 300.309 451.497 297.064 450.407 294.11 448.724 C 292.671 447.943 291.241 447.137 289.763 446.436 C 287.303 445.639 284.931 444.562 282.531 443.606 C 278.636 441.745 274.527 440.313 270.835 438.049 C 267.518 436.273 264.082 434.724 260.465 433.658 C 255.729 431.94 251.151 429.806 246.568 427.721 C 242.635 425.883 238.641 424.069 235.134 421.476 C 231.902 419.232 228.364 417.597 224.502 416.737 C 216.02 414.461 208.006 410.695 200.103 406.92 C 193.62 403.516 187.159 399.985 180.352 397.268 C 175.056 395.148 169.865 392.762 165.013 389.74 C 160.999 387.405 157.219 384.706 153.46 381.985 C 150.091 379.699 146.493 377.733 143.412 375.038 C 140.11 372.435 136.38 370.61 132.782 368.457 C 129.494 366.372 126.247 364.189 122.575 362.818 C 118.547 361.289 114.39 360.047 110.901 357.404 C 107.879 355.404 104.917 353.238 101.643 351.673 C 97.9394 350.257 94.0854 349.455 90.2317 348.558 C 85.5943 347.411 80.938 346.134 76.5477 344.238 C 76.4489 344.195 77.0684 342.796 77.1673 342.84 L 77.17 342.84 Z" id="imagebot_13"/>
  <path transform="translate(-1.25 7.5) matrix(1 0 0 1 -44.3063 -222.391)" label="Layer 1" fill-rule="evenodd" fill="#000000" d="M 84.282 367.05 C 88.9849 368.08 93.0969 370.714 97.352 372.838 C 99.2685 373.793 101.145 374.841 103.095 375.727 C 105.322 376.969 107.566 378.211 109.893 379.269 C 112.517 380.296 114.728 382.145 117.309 383.24 C 118.631 384.05 120.003 384.774 121.411 385.422 C 123.844 386.866 126.56 387.589 129.172 388.608 C 133.438 390.32 137.413 392.644 141.579 394.568 C 145.209 396.164 148.906 397.584 152.496 399.269 C 154.962 400.163 157.105 401.548 159.186 403.118 C 160.757 404.908 162.778 406.277 164.939 407.253 C 168.249 409.013 171.702 410.384 175.178 411.777 C 179.416 413.612 183.053 416.454 186.84 419.035 C 189.055 420.972 191.864 421.865 194.428 423.186 C 194.714 423.333 194.985 423.512 195.286 423.625 C 195.953 423.876 196.676 423.953 197.347 424.195 C 198.781 424.711 200.147 425.422 201.568 425.976 C 205.456 427.598 209.19 429.498 212.806 431.651 C 216.166 433.884 220.114 434.832 223.613 436.79 C 226.79 438.361 230.077 439.715 233.37 441.025 C 236.446 442.28 239.518 443.529 242.572 444.837 C 245.183 446.181 247.918 447.182 250.628 448.305 C 253.194 449.559 255.982 449.854 258.741 450.418 C 262.038 451.143 265.311 451.969 268.311 453.547 C 271.957 455.577 275.899 456.917 279.768 458.441 C 283.047 459.523 286.464 460.229 289.667 461.545 C 291.195 462.174 292.153 462.765 293.577 463.564 C 295.909 464.87 297.979 466.583 300.254 467.973 C 302.069 468.663 303.861 469.403 305.661 470.133 C 308.239 470.971 310.747 471.979 313.279 472.944 C 316.396 473.984 319.683 474.553 322.909 475.193 C 326.641 476.046 330.219 477.504 333.558 479.363 C 335.035 479.99 336.471 481.505 338.198 481.198 C 340.436 481.41 342.646 481.928 344.835 482.433 C 349.469 483.603 353.687 485.856 357.779 488.262 C 359.104 488.826 360.332 489.619 361.689 490.113 C 361.963 490.213 362.281 490.2 362.532 490.347 C 363 490.622 362.935 491.079 362.989 491.526 C 363.288 490.856 362.598 492.142 362.719 492.004 C 362.839 491.868 362.854 491.589 363.034 491.557 C 363.313 491.509 367.048 492.685 367.332 492.76 C 370.6 493.401 373.757 494.443 376.946 495.377 C 377.103 495.456 375.982 497.684 375.824 497.605 C 372.548 496.844 369.233 496.099 366.147 494.728 C 364.834 494.125 362.025 493.251 361.738 491.487 C 361.723 491.396 362.069 491 361.966 491.33 C 362.018 491.459 362.15 491.58 362.122 491.716 C 362.089 491.882 361.508 491.793 360.79 491.632 C 359.264 491.29 357.832 490.636 356.374 490.093 C 352.176 488.179 348.078 486.05 343.804 484.304 C 342.131 483.641 340.443 482.73 338.625 482.599 C 336.349 482.646 334.408 481.925 332.337 481.006 C 328.97 479.522 325.586 478.043 321.991 477.189 C 318.712 476.414 315.384 475.756 312.222 474.572 C 309.749 473.5 307.203 472.609 304.734 471.529 C 302.913 470.732 301.117 469.881 299.243 469.217 C 296.871 467.977 294.656 466.437 292.173 465.409 C 287.726 463.334 282.911 462.353 278.33 460.631 C 274.515 458.973 270.695 457.284 267.104 455.175 C 264.19 453.828 261.076 452.999 257.982 452.169 C 255.101 451.663 252.266 451.025 249.519 449.999 C 246.806 448.887 244.205 447.519 241.472 446.452 C 238.437 445.095 235.19 444.28 232.168 442.884 C 228.84 441.52 225.601 439.985 222.327 438.497 C 218.643 436.824 214.685 435.717 211.27 433.486 C 207.708 431.429 204.063 429.513 200.367 427.707 C 198.099 426.549 195.914 425.298 193.466 424.538 C 190.672 423.381 187.653 422.734 185.237 420.769 C 181.515 418.335 177.844 415.792 173.879 413.762 C 170.406 412.296 167.007 410.742 163.798 408.749 C 161.672 407.52 159.673 406.111 157.935 404.36 C 155.927 402.891 153.856 401.533 151.405 400.929 C 147.59 399.554 143.743 398.261 139.99 396.726 C 135.979 394.641 132.062 392.379 127.997 390.402 C 125.422 389.281 122.81 388.213 120.442 386.685 C 119.142 385.932 117.947 384.979 116.461 384.618 C 113.722 383.71 111.249 382.164 108.648 380.937 C 106.438 379.736 104.342 378.349 102.298 376.896 C 100.251 376.03 98.0569 375.643 95.9978 374.799 C 91.6203 373.052 87.391 370.939 83.4368 368.365 C 83.3438 368.305 84.1883 366.99 84.2813 367.05 L 84.282 367.05 Z" id="imagebot_12"/>
  <path transform="translate(-1.25 7.5) matrix(1 0 0 1 -44.3063 -222.391)" label="Layer 1" fill-rule="evenodd" fill="#000000" d="M 657.26 408.81 C 651.853 410.505 646.089 410.972 640.458 411.411 C 636.39 411.394 632.405 411.87 628.457 412.804 C 625.292 413.736 622.202 414.879 619.181 416.203 C 615.562 417.608 611.827 418.633 608.068 419.578 C 603.193 421.163 598.15 422.09 593.201 423.388 C 587.88 424.484 582.73 426.168 577.713 428.229 C 569.424 430.74 561.251 433.603 552.994 436.208 C 545.278 438.362 537.564 440.517 529.962 443.051 C 528.465 443.518 526.981 443.98 525.497 444.465 C 521.543 446.3 517.873 448.661 513.989 450.631 C 510.416 452.334 506.766 454.189 502.776 454.587 C 500.27 454.266 497.956 455.03 495.618 455.835 C 492.329 456.78 489.173 458.137 485.894 459.107 C 484.23 459.406 482.591 459.769 480.993 460.316 C 478.343 461.601 475.482 462.427 472.603 463.016 C 470.234 463.575 467.905 464.281 465.54 464.853 C 463.173 465.43 460.843 466.123 458.493 466.761 C 456.877 467.179 455.225 467.049 453.586 466.886 C 453.543 466.871 453.759 466.262 453.802 466.277 C 455.263 466.442 456.726 466.601 458.159 466.143 C 460.482 465.379 462.773 464.531 465.184 464.058 C 467.569 463.655 469.894 462.912 472.174 462.116 C 475.022 461.354 477.868 460.602 480.696 459.779 C 482.293 459.332 483.924 459.05 485.467 458.421 C 488.57 456.95 491.654 455.451 495.048 454.741 C 497.5 454.202 499.952 453.841 502.466 453.842 C 506.168 452.889 509.441 450.794 512.853 449.14 C 516.824 447.056 520.839 444.879 525.281 443.998 C 527.28 443.754 527.448 443.171 529.009 441.754 C 535.704 437.297 543.73 435.498 551.347 433.241 C 554.537 432.246 557.702 431.165 560.917 430.254 C 566.109 428.782 571.429 427.802 576.664 426.5 C 581.882 424.823 586.956 422.778 592.374 421.731 C 597.375 420.464 602.452 419.558 607.446 418.269 C 611.202 417.457 614.934 416.628 618.495 415.132 C 621.655 413.992 624.731 412.688 628.029 411.975 C 631.863 410.767 635.686 409.58 639.748 409.372 C 645.483 408.666 651.231 408.093 657.019 408.265 C 657.058 408.248 657.299 408.793 657.261 408.81 L 657.26 408.81 Z" id="imagebot_11"/>
  <path transform="translate(-1.25 7.5) matrix(1 0 0 1 -44.3063 -222.391)" label="Layer 1" fill-rule="evenodd" fill="#000000" d="M 610.47 445.92 C 603.077 449.666 594.623 451.062 586.502 452.327 C 579.819 453.301 573.157 454.533 566.425 455.137 C 554.017 456.25 569.691 454.589 557.745 455.901 C 549.227 456.732 540.801 458.244 532.469 460.172 C 525.407 461.545 518.567 463.879 512.025 466.849 C 504.555 470.936 496.572 473.915 488.677 477.052 C 483.845 478.792 479.064 480.662 474.126 482.087 C 471.487 482.849 468.811 483.437 466.181 484.231 C 463.366 485.423 460.912 487.266 458.238 488.708 C 454.888 490.714 451.138 491.668 447.402 492.642 C 445.002 493.027 442.619 493.606 440.203 493.895 C 438.098 494.478 436.063 495.27 434.005 496.001 C 432.538 496.579 431.103 496.904 429.538 496.941 C 429.483 496.96 429.214 496.188 429.269 496.169 C 430.697 495.89 432.074 495.46 433.458 495.013 C 435.631 494.423 437.867 494.117 440.014 493.424 C 442.319 492.968 444.462 491.843 446.791 491.439 C 450.448 490.446 454.184 489.599 457.593 487.894 C 460.278 486.415 462.897 484.812 465.446 483.111 C 472.267 479.432 479.335 476.277 486.713 473.852 C 490.463 472.55 493.135 471.593 496.894 470.4 C 501.643 468.892 506.466 467.591 510.985 465.446 C 513.602 464.038 516.087 462.384 518.816 461.19 C 522.767 459.46 526.938 458.275 531.149 457.382 C 539.588 455.439 548.169 454.342 556.743 453.167 C 566.236 451.941 575.736 450.765 585.124 448.841 C 593.46 447.635 601.763 446.229 610.158 445.501 C 610.188 445.479 610.5 445.898 610.47 445.92 L 610.47 445.92 Z" id="imagebot_10"/>
  <path transform="translate(-1.25 7.5) matrix(1 0 0 1 -44.3063 -222.391)" label="Layer 1" fill-rule="evenodd" fill="#000000" d="M 637.26 452.81 C 632.12 454.435 626.72 455.016 621.465 456.181 C 616.514 457.146 611.84 459.115 607.2 461.04 C 602.157 462.837 597.218 464.993 592.092 466.553 C 591.079 466.861 583.61 468.772 582.542 469.047 C 578.79 470.101 574.978 470.858 571.109 471.298 C 570.321 471.387 569.525 471.399 568.742 471.527 C 567.645 471.706 566.151 472.218 565.093 472.552 C 561.194 473.773 557.33 474.963 553.335 475.851 C 547.698 476.911 542.005 477.544 536.302 478.124 C 532.182 478.371 528.085 478.863 524.146 480.123 C 520.725 481.211 517.555 482.888 514.137 484.007 C 510.829 485.398 507.35 485.365 503.859 485.509 C 500.503 485.658 497.223 486.233 493.921 486.812 C 489.837 487.432 485.82 488.253 481.674 488.351 C 479.082 488.396 476.544 487.916 473.987 487.59 C 473.949 487.577 474.129 487.035 474.168 487.048 C 476.536 487.149 478.916 487.279 481.282 487.059 C 485.353 486.727 489.401 486.253 493.435 485.596 C 496.811 485.139 500.17 484.607 503.59 484.622 C 506.976 484.411 510.241 483.933 513.466 482.782 C 516.925 481.797 520.222 480.418 523.557 479.089 C 527.496 477.77 531.509 476.766 535.659 476.386 C 541.311 475.564 546.993 474.992 552.654 474.235 C 556.686 473.697 560.645 472.911 564.457 471.445 C 569.945 469.528 575.448 467.659 581.049 466.08 C 589.44 463.858 597.89 461.851 606.207 459.358 C 611.099 457.961 615.702 455.818 620.562 454.33 C 625.931 452.891 631.447 452.153 637.017 452.265 C 637.056 452.248 637.297 452.793 637.259 452.81 L 637.26 452.81 Z" id="imagebot_9"/>
  <path transform="translate(-1.25 7.5) matrix(1 0 0 1 -44.3063 -222.391)" label="Layer 1" fill-rule="evenodd" fill="#000000" d="M 673.99 423.08 C 667.446 425.975 660.452 427.402 653.427 428.523 C 645.536 429.462 637.763 431.219 629.831 431.788 C 627.493 432.453 625.039 431.166 622.715 431.497 C 620.838 431.715 619.002 432.102 617.147 432.498 C 615.177 432.897 613.189 432.871 611.265 433.474 C 609.105 433.993 606.885 434.103 604.686 434.431 C 602.334 434.797 603.539 434.624 601.071 434.946 C 600.984 434.976 600.556 433.752 600.642 433.722 C 603.135 433.537 601.913 433.641 604.307 433.413 C 606.601 433.181 608.809 433.482 611.025 433.068 C 611.754 432.787 612.504 432.394 613.272 432.235 C 614.425 431.996 615.649 432.041 616.787 431.691 C 618.739 431.316 620.665 430.966 622.644 431.368 C 624.637 430.328 626.802 430.036 629.029 429.681 C 636.756 428.126 644.569 426.976 652.391 426.032 C 659.446 424.739 666.46 423.093 673.593 422.327 C 673.646 422.299 674.043 423.052 673.99 423.08 L 673.99 423.08 Z" id="imagebot_8"/>
  <path transform="translate(-1.25 7.5) matrix(1 0 0 1 -44.3063 -222.391)" label="Layer 1" fill-rule="evenodd" fill="#000000" d="M 290.12 478.12 C 293.438 479.317 296.474 481.133 299.539 482.85 C 300.445 483.379 301.146 484.394 302.195 484.698 C 302.424 484.764 302.668 484.76 302.904 484.79 L 303.767 485.109 C 305.399 485.361 306.456 486.472 307.791 487.304 C 308.232 488.079 308.435 488.045 309.177 488.145 C 309.638 488.207 310.077 488.383 310.53 488.492 C 312.38 488.562 313.978 489.513 315.794 489.734 C 317.819 490.275 319.753 491.084 321.751 491.704 C 325.187 492.219 328.547 493.181 331.95 493.903 C 336.526 494.841 341.011 496.172 345.622 496.94 C 347.492 497.179 349.129 498.014 350.846 498.692 C 350.929 498.746 350.156 499.92 350.073 499.865 C 348.393 499.133 346.761 498.923 344.904 498.967 C 340.105 498.717 335.416 497.511 330.802 496.223 C 327.497 495.253 324.325 493.879 320.959 493.127 C 319.008 492.505 317.112 491.727 315.115 491.246 C 313.363 490.751 311.664 490.094 309.872 489.742 C 308.778 489.379 307.655 489.193 306.829 488.316 C 305.65 487.409 304.393 486.832 302.966 486.392 C 301.415 485.778 299.858 485.185 298.36 484.447 C 295.16 483.064 291.985 481.463 289.249 479.287 C 289.166 479.226 290.037 478.059 290.119 478.12 L 290.12 478.12 Z" id="imagebot_7"/>
  <path transform="translate(-1.25 7.5) matrix(1 0 0 1 -44.3063 -222.391)" label="Layer 1" stroke="#000000" stroke-width="0.7126px" fill="#000000" d="M 624.01 433.57 C 666.889 429.091 666.407 453.094 679.323 510.819 L 741.184 564.884 L 721.266 529.113 L 761.014 543.048 L 705.989 497.679 C 691.096 459.662 701.736 425.299 662.036 424.494 L 624.01 433.569 L 624.01 433.57 Z" id="imagebot_6"/>
  <title>Layer 1</title>
 </g>
 <metadata>image/svg+xmlOpenclipartBook2010-06-20T08:57:17Taftish.wordpress.comhttps://openclipart.org/detail/67897/book-by-alinnAlinnBook</metadata>
</svg>